<svg version="1.1" xmlns="http://www.w3.org/2000/svg" xmlns:xlink="http://www.w3.org/1999/xlink" width="259.27192" height="197.78048" viewBox="0,0,259.27192,197.78048"><g transform="translate(-110.36404,-81.10976)"><g stroke-miterlimit="10"><path d="M111.38346,276.88502c0,0 -1.04483,-0.75143 -1.01895,-4.29254c0.21559,-29.504 1.2283,-168.09319 1.35454,-185.37061c0.02536,-3.47037 1.56623,-4.78354 1.56623,-4.78354c0,0 1.95096,-1.34368 6.40289,-1.32844c21.14513,0.07242 206.04371,0.6301 242.67104,0.75577c4.69051,0.01609 5.74063,1.23648 5.74063,1.23648c0,0 1.5615,0.71981 1.5358,4.19621c-0.21812,29.51725 -1.25883,170.43395 -1.36568,186.49784c-0.0195,2.93148 -1.55975,3.96491 -1.55975,3.96491c0,0 -0.67668,1.14266 -4.65184,1.12902c-34.7456,-0.11922 -227.30548,-0.70316 -246.02234,-0.76727c-3.28918,-0.01127 -4.65259,-1.23786 -4.65259,-1.23786z" fill-opacity="0.50196" fill="#000000" stroke="#000000" stroke-width="0"></path><text transform="translate(128,131.5) scale(0.54334,0.54334)" font-size="40" xml:space="preserve" fill="#ffffff" stroke="none" stroke-width="1" font-family="Pixel" font-weight="normal" text-anchor="start"><tspan x="0" dy="0">For -Schnauzers-</tspan></text><text transform="translate(151,169.5) scale(0.28332,0.28332)" font-size="40" xml:space="preserve" fill="#ffffff" stroke="none" stroke-width="1" font-family="Pixel" font-weight="normal" text-anchor="start"><tspan x="0" dy="0">Schnauzers are in the later </tspan><tspan x="0" dy="46.150000000000006px">levels! (Levels 16, 19, and 20) </tspan><tspan x="0" dy="46.150000000000006px">Want to see them right away? </tspan><tspan x="0" dy="46.150000000000006px">Press Z to unlock all levels.</tspan><tspan x="0" dy="46.150000000000006px">Otherwise, take your time, </tspan><tspan x="0" dy="46.150000000000006px">explore, and enjoy the game!</tspan></text><text transform="translate(192.82065,261.72509) scale(0.30714,0.30714)" font-size="40" xml:space="preserve" fill="#ffffff" stroke="none" stroke-width="1" font-family="Pixel" font-weight="normal" text-anchor="start"><tspan x="0" dy="0">(click to hide)</tspan></text></g></g></svg>