<svg version="1.1" xmlns="http://www.w3.org/2000/svg" xmlns:xlink="http://www.w3.org/1999/xlink" width="413.72508" height="192.53904" viewBox="0,0,413.72508,192.53904"><g transform="translate(-36.91089,-52.10977)"><g stroke-miterlimit="10"><path d="M38.5376,242.6967c0,0 -1.66725,-0.73151 -1.62595,-4.17878c0.34403,-28.72211 1.96002,-163.63849 2.16147,-180.45804c0.04047,-3.3784 2.49926,-4.65676 2.49926,-4.65676c0,0 3.11318,-1.30807 10.21722,-1.29322c33.74169,0.0705 328.78782,0.61339 387.23473,0.73574c7.48474,0.01567 9.16043,1.20371 9.16043,1.20371c0,0 2.49171,0.70074 2.45071,4.085c-0.34806,28.73501 -2.00874,165.91722 -2.17925,181.55539c-0.03111,2.85379 -2.48892,3.85984 -2.48892,3.85984c0,0 -1.07979,1.11238 -7.42303,1.09911c-55.4442,-0.11606 -362.71562,-0.68453 -392.58247,-0.74695c-5.24861,-0.01098 -7.42423,-1.20505 -7.42423,-1.20505z" fill-opacity="0.36471" fill="#000000" stroke="#000000" stroke-width="0"></path><text transform="translate(150.56618,108.73465) scale(0.84367,0.84367)" font-size="40" xml:space="preserve" fill="#ffffff" stroke="none" stroke-width="1" font-family="Pixel" font-weight="normal" text-anchor="start"><tspan x="0" dy="0">Save Code</tspan></text><text transform="translate(98.74786,159.99637) scale(0.39693,0.39693)" font-size="40" xml:space="preserve" fill="#ffffff" stroke="none" stroke-width="1" font-family="Pixel" font-weight="normal" text-anchor="start"><tspan x="0" dy="0">Copy this code to continue from the</tspan><tspan x="0" dy="46.150000000000006px">level you reached!</tspan></text></g></g></svg>