<svg version="1.1" xmlns="http://www.w3.org/2000/svg" xmlns:xlink="http://www.w3.org/1999/xlink" width="483.024" height="362.149" viewBox="0,0,483.024,362.149"><g transform="translate(1,0.75)"><g stroke-miterlimit="10"><path d="M0.024,361.399v-361.5h482v361.5z" fill="#000000" stroke="#000000" stroke-width="0" stroke-linecap="butt" stroke-linejoin="miter"></path><path d="M-1,-0.75h482v361.5h-482z" fill="#000000" stroke="none" stroke-width="1" stroke-linecap="butt" stroke-linejoin="miter" opacity="0.25"></path><path d="M240,220c-22.09139,0 -40,-17.90861 -40,-40c0,-22.09139 17.90861,-40 40,-40c22.09139,0 40,17.90861 40,40c0,22.09139 -17.90861,40 -40,40z" fill-opacity="0.74902" fill="#d8d8d8" stroke="#d4d4d4" stroke-width="3.2" stroke-linecap="butt" stroke-linejoin="bevel"></path><g fill="#48e755" stroke="#45993d" stroke-linecap="round" stroke-linejoin="round"><path d="M219,161.59883c6.23212,-4.63688 14.76788,-4.63688 21,0v0c6.23212,4.63688 14.76788,4.63688 21,0v28.401c-6.23212,4.63688 -14.76788,4.63688 -21,0v0c-6.23212,-4.63688 -14.76788,-4.63688 -21,0" stroke-width="2.731"></path><path d="M219,201.87883v-43.693" stroke-width="4.096"></path></g></g></g></svg>