<svg version="1.1" xmlns="http://www.w3.org/2000/svg" xmlns:xlink="http://www.w3.org/1999/xlink" width="419.88659" height="309.37538" viewBox="0,0,419.88659,309.37538"><g transform="translate(-30.05671,-25.31232)"><g stroke-miterlimit="10"><path d="M31.70765,331.55102c0,0 -1.69208,-1.17542 -1.65018,-6.71454c0.34914,-46.15122 1.9892,-262.93743 2.19365,-289.96339c0.04107,-5.42848 2.53649,-7.48258 2.53649,-7.48258c0,0 3.15955,-2.10184 10.36938,-2.07799c34.24419,0.11329 333.68439,0.98563 393.00174,1.18221c7.5962,0.02517 9.29685,1.93415 9.29685,1.93415c0,0 2.52882,1.12595 2.48721,6.56386c-0.35325,46.17195 -2.03865,266.59893 -2.21169,291.72665c-0.03158,4.58553 -2.52599,6.20206 -2.52599,6.20206c0,0 -1.09587,1.78739 -7.53358,1.76606c-56.26992,-0.18649 -368.11747,-1.09991 -398.42912,-1.20019c-5.32677,-0.01763 -7.53479,-1.93631 -7.53479,-1.93631z" fill-opacity="0.12157" fill="#000000" stroke="#000000" stroke-width="0"></path><text transform="translate(53.1875,74.6875) scale(0.5,0.5)" font-size="40" xml:space="preserve" fill="#000000" stroke="none" stroke-width="1" font-family="Pixel" font-weight="normal" text-anchor="start"><tspan x="0" dy="0">Sound</tspan></text><text transform="translate(55.1875,121) scale(0.5,0.5)" font-size="40" xml:space="preserve" fill="#201535" stroke="none" stroke-width="1" font-family="Pixel" font-weight="normal" text-anchor="start"><tspan x="0" dy="0">Music</tspan></text><text transform="translate(52.1875,167) scale(0.5,0.5)" font-size="40" xml:space="preserve" fill="#201535" stroke="none" stroke-width="1" font-family="Pixel" font-weight="normal" text-anchor="start"><tspan x="0" dy="0">Shadows</tspan></text><text transform="translate(53.1875,214) scale(0.5,0.5)" font-size="40" xml:space="preserve" fill="#201535" stroke="none" stroke-width="1" font-family="Pixel" font-weight="normal" text-anchor="start"><tspan x="0" dy="0">Particles</tspan></text><text transform="translate(50.1875,254.06791) scale(0.44549,0.44549)" font-size="40" xml:space="preserve" fill="#000000" stroke="none" stroke-width="1" font-family="Pixel" font-weight="normal" text-anchor="start"><tspan x="0" dy="0">Soilder Dialogue</tspan></text><text transform="translate(50.18751,297.25) scale(0.47833,0.47833)" font-size="40" xml:space="preserve" fill="#000000" stroke="none" stroke-width="1" font-family="Pixel" font-weight="normal" text-anchor="start"><tspan x="0" dy="0">Themes</tspan></text></g></g></svg>