<svg width="1280" height="775" viewBox="0 0 1280 775" fill="none" xmlns="http://www.w3.org/2000/svg">
<g clip-path="url(#clip0_619_1835)">
<rect width="1280" height="775" fill="black"/>
<g filter="url(#filter0_f_619_1835)">
<g clip-path="url(#paint0_angular_619_1835_clip_path)" data-figma-skip-parse="true"><g transform="matrix(0 0.393 -0.6755 0 703.5 438)"><foreignObject x="-1002.54" y="-1002.54" width="2005.09" height="2005.09"><div xmlns="http://www.w3.org/1999/xhtml" style="background:conic-gradient(from 90deg,rgba(52, 44, 138, 1) 0deg,rgba(33, 31, 57, 1) 46.7615deg,rgba(91, 45, 125, 1) 109.074deg,rgba(0, 0, 0, 1) 237.115deg,rgba(53, 47, 114, 1) 360deg);height:100%;width:100%;opacity:1"></div></foreignObject></g></g><rect x="28" y="45" width="1351" height="786" data-figma-gradient-fill="{&#34;type&#34;:&#34;GRADIENT_ANGULAR&#34;,&#34;stops&#34;:[{&#34;color&#34;:{&#34;r&#34;:0.20500415563583374,&#34;g&#34;:0.17439743876457214,&#34;b&#34;:0.54167789220809937,&#34;a&#34;:1.0},&#34;position&#34;:0.0},{&#34;color&#34;:{&#34;r&#34;:0.13130885362625122,&#34;g&#34;:0.12268141657114029,&#34;b&#34;:0.22621066868305206,&#34;a&#34;:1.0},&#34;position&#34;:0.12989303469657898},{&#34;color&#34;:{&#34;r&#34;:0.35983759164810181,&#34;g&#34;:0.17659647762775421,&#34;b&#34;:0.4907241165637970,&#34;a&#34;:1.0},&#34;position&#34;:0.30298355221748352},{&#34;color&#34;:{&#34;r&#34;:0.0,&#34;g&#34;:0.0,&#34;b&#34;:0.0,&#34;a&#34;:1.0},&#34;position&#34;:0.65865385532379150},{&#34;color&#34;:{&#34;r&#34;:0.20784313976764679,&#34;g&#34;:0.18431372940540314,&#34;b&#34;:0.44705882668495178,&#34;a&#34;:1.0},&#34;position&#34;:1.0}],&#34;stopsVar&#34;:[{&#34;color&#34;:{&#34;r&#34;:0.20500415563583374,&#34;g&#34;:0.17439743876457214,&#34;b&#34;:0.54167789220809937,&#34;a&#34;:1.0},&#34;position&#34;:0.0},{&#34;color&#34;:{&#34;r&#34;:0.13130885362625122,&#34;g&#34;:0.12268141657114029,&#34;b&#34;:0.22621066868305206,&#34;a&#34;:1.0},&#34;position&#34;:0.12989303469657898},{&#34;color&#34;:{&#34;r&#34;:0.35983759164810181,&#34;g&#34;:0.17659647762775421,&#34;b&#34;:0.4907241165637970,&#34;a&#34;:1.0},&#34;position&#34;:0.30298355221748352},{&#34;color&#34;:{&#34;r&#34;:0.0,&#34;g&#34;:0.0,&#34;b&#34;:0.0,&#34;a&#34;:1.0},&#34;position&#34;:0.65865385532379150},{&#34;color&#34;:{&#34;r&#34;:0.20784313976764679,&#34;g&#34;:0.18431372940540314,&#34;b&#34;:0.44705882668495178,&#34;a&#34;:1.0},&#34;position&#34;:1.0}],&#34;transform&#34;:{&#34;m00&#34;:8.2724896811187110e-14,&#34;m01&#34;:-1351.0,&#34;m02&#34;:1379.0,&#34;m10&#34;:786.0,&#34;m11&#34;:4.8128622127160264e-14,&#34;m12&#34;:45.0},&#34;opacity&#34;:1.0,&#34;blendMode&#34;:&#34;NORMAL&#34;,&#34;visible&#34;:true}"/>
<rect x="28" y="45" width="1351" height="786" fill="url(#paint1_linear_619_1835)"/>
</g>
<g filter="url(#filter1_d_619_1835)">
<path d="M1310 -30V57H69C55.7452 57 45 67.7452 45 81V805H-30V-30H1310Z" fill="#0E0514" shape-rendering="crispEdges"/>
<path d="M1310.75 -30.75V57.75H69C56.1594 57.75 45.75 68.1594 45.75 81V805.75H-30.75V-30.75H1310.75Z" stroke="white" stroke-opacity="0.5" stroke-width="1.5" shape-rendering="crispEdges"/>
</g>
<path d="M60.44 32.328V29.76H62.456V32.544C62.456 33.632 63 34.176 64.088 34.176H67.832C68.92 34.176 69.464 33.632 69.464 32.544V21.264H64.04V19.44H71.48V32.328C71.48 34.776 70.256 36 67.808 36H64.112C61.664 36 60.44 34.776 60.44 32.328ZM75.3084 21.192V18.936H77.4204V21.192H75.3084ZM75.4044 36V23.52H77.3244V36H75.4044ZM81.17 36V23.52H95.33C97.73 23.52 98.93 24.72 98.93 27.12V36H97.01V26.88C97.01 25.76 96.45 25.2 95.33 25.2H91.01V36H89.09V25.2H83.09V36H81.17ZM102.686 36V23.52H116.846C119.246 23.52 120.446 24.72 120.446 27.12V36H118.526V26.88C118.526 25.76 117.966 25.2 116.846 25.2H112.526V36H110.606V25.2H104.606V36H102.686ZM122.761 23.856L122.977 23.52H124.633L128.281 34.32H128.761L132.409 23.52H134.065L134.281 23.856L128.425 40.8H126.769L126.553 40.464L128.161 36H126.961L122.761 23.856ZM136.67 32.328V23.112C136.67 20.664 137.894 19.44 140.342 19.44H145.958C148.406 19.44 149.63 20.664 149.63 23.112V32.352C149.63 34.576 148.582 35.768 146.486 35.928L148.118 39.12L147.854 39.6H146.15L144.326 36H140.342C137.894 36 136.67 34.776 136.67 32.328ZM138.686 32.544C138.686 33.632 139.23 34.176 140.318 34.176H145.982C147.07 34.176 147.614 33.632 147.614 32.544V22.896C147.614 21.808 147.07 21.264 145.982 21.264H140.318C139.23 21.264 138.686 21.808 138.686 22.896V32.544ZM153.379 36V24.96C153.939 24 154.979 23.52 156.499 23.52H158.899L159.859 24.24V25.2H156.763C156.091 25.2 155.603 25.384 155.299 25.752V36H153.379ZM162.212 32.4V27.12C162.212 24.72 163.412 23.52 165.812 23.52H172.532V37.2C172.532 39.6 171.332 40.8 168.932 40.8H164.132L163.172 40.08V39.12H168.932C170.052 39.12 170.612 38.56 170.612 37.44V36H165.812C163.412 36 162.212 34.8 162.212 32.4ZM164.132 32.64C164.132 33.76 164.692 34.32 165.812 34.32H170.612V25.2H165.812C164.692 25.2 164.132 25.76 164.132 26.88V32.64Z" fill="white"/>
<path d="M20.3333 114V103H26.6667V114M14 99.7L23.5 92L33 99.7V111.8C33 112.383 32.7776 112.943 32.3817 113.356C31.9858 113.768 31.4488 114 30.8889 114H16.1111C15.5512 114 15.0142 113.768 14.6183 113.356C14.2224 112.943 14 112.383 14 111.8V99.7Z" stroke="white" stroke-width="1.5" stroke-linecap="round" stroke-linejoin="round"/>
<path d="M27.3227 141C28.9864 141 30.4423 142.205 30.8711 143.937L32.874 152.025C33.4958 154.536 31.7378 157 29.3248 157H29.1407C27.6893 157 26.3739 156.079 25.7844 154.651L25.4226 153.774C25.2261 153.298 24.7872 152.991 24.3036 152.991H21.6965C21.2128 152.991 20.774 153.298 20.5774 153.774L20.2156 154.651C19.6261 156.079 18.3106 157 16.8593 157H16.6752C14.2621 157 12.5042 154.536 13.126 152.025L15.1289 143.937C15.5578 142.205 17.0136 141 18.6773 141H27.3227ZM18.6773 142.319C17.5683 142.319 16.5978 143.122 16.3117 144.276L14.3088 152.365C13.9072 153.986 14.9944 155.578 16.5253 155.676L16.6752 155.681H16.8593L17.0394 155.674C17.8747 155.608 18.6222 155.085 19.0176 154.29L19.0973 154.115L19.4584 153.238C19.8268 152.346 20.6208 151.751 21.5155 151.68L21.6965 151.673H24.3036C25.271 151.673 26.1486 152.286 26.5416 153.238L26.9027 154.115C27.2711 155.008 28.0654 155.603 28.9606 155.674L29.1407 155.681H29.3248L29.4747 155.676C30.956 155.581 32.0221 154.088 31.7255 152.522L31.6912 152.365L29.6883 144.276C29.4202 143.194 28.5499 142.42 27.5283 142.328L27.3227 142.319H18.6773ZM25.8944 148.109C26.3512 148.109 26.7217 148.508 26.7217 149C26.7216 149.492 26.3512 149.891 25.8944 149.891C25.4378 149.89 25.068 149.492 25.0679 149C25.0679 148.509 25.4377 148.11 25.8944 148.109ZM20.1048 144.778C20.4427 144.778 20.7169 145.073 20.7169 145.437V146.56H21.7586C22.0967 146.56 22.3708 146.855 22.3708 147.219C22.3704 147.583 22.0965 147.878 21.7586 147.878H20.7169V149C20.7167 149.364 20.4426 149.659 20.1048 149.66C19.767 149.66 19.4929 149.364 19.4927 149V147.878H18.4502C18.1124 147.878 17.8384 147.583 17.838 147.219C17.838 146.855 18.1122 146.56 18.4502 146.56H19.4927V145.437C19.4927 145.073 19.7668 144.778 20.1048 144.778ZM24.2406 146.327C24.6973 146.327 25.0678 146.726 25.0679 147.218C25.0679 147.71 24.6973 148.109 24.2406 148.109C23.7838 148.109 23.4133 147.71 23.4133 147.218C23.4133 146.726 23.7838 146.327 24.2406 146.327ZM27.5491 146.327C28.0058 146.327 28.3763 146.726 28.3764 147.218C28.3764 147.71 28.0059 148.109 27.5491 148.109C27.0922 148.109 26.7217 147.71 26.7217 147.218C26.7218 146.726 27.0923 146.327 27.5491 146.327ZM25.8944 144.546C26.3512 144.546 26.7217 144.945 26.7217 145.437C26.7216 145.929 26.3511 146.327 25.8944 146.327C25.4378 146.327 25.0681 145.929 25.0679 145.437C25.0679 144.945 25.4377 144.546 25.8944 144.546Z" fill="white"/>
<g filter="url(#filter2_dd_619_1835)">
<path d="M21.3889 184H14V191.389H21.3889V184Z" stroke="white" stroke-width="1.5" stroke-linecap="round" stroke-linejoin="round"/>
<path d="M33 184H25.6111V191.389H33V184Z" stroke="white" stroke-width="1.5" stroke-linecap="round" stroke-linejoin="round"/>
<path d="M33 195.611H25.6111V203H33V195.611Z" stroke="white" stroke-width="1.5" stroke-linecap="round" stroke-linejoin="round"/>
<path d="M21.3889 195.611H14V203H21.3889V195.611Z" stroke="white" stroke-width="1.5" stroke-linecap="round" stroke-linejoin="round"/>
</g>
<path d="M18.2222 239.45V235.25C18.2222 233.858 18.7783 232.522 19.768 231.538C20.7578 230.553 22.1002 230 23.5 230C24.8998 230 26.2422 230.553 27.232 231.538C28.2217 232.522 28.7778 233.858 28.7778 235.25V239.45M16.1111 239.45H30.8889C32.0548 239.45 33 240.39 33 241.55V248.9C33 250.06 32.0548 251 30.8889 251H16.1111C14.9452 251 14 250.06 14 248.9V241.55C14 240.39 14.9452 239.45 16.1111 239.45Z" stroke="white" stroke-width="1.5" stroke-linecap="round" stroke-linejoin="round"/>
<path d="M32.9994 292.225V295.085C33.0005 295.351 32.946 295.614 32.8394 295.857C32.7328 296.1 32.5765 296.319 32.3804 296.498C32.1844 296.678 31.9529 296.814 31.7009 296.899C31.4489 296.985 31.1818 297.016 30.9168 296.992C27.9772 296.673 25.1534 295.671 22.6725 294.065C20.3643 292.601 18.4073 290.648 16.9406 288.345C15.3261 285.857 14.3213 283.026 14.0078 280.079C13.9839 279.815 14.0153 279.549 14.0999 279.298C14.1846 279.047 14.3207 278.817 14.4995 278.621C14.6783 278.426 14.896 278.27 15.1386 278.163C15.3813 278.056 15.6436 278 15.9088 278H18.7748C19.2384 277.996 19.6879 278.159 20.0394 278.461C20.3909 278.763 20.6205 279.182 20.6854 279.64C20.8064 280.555 21.0307 281.454 21.3541 282.319C21.4827 282.66 21.5105 283.031 21.4343 283.388C21.3581 283.744 21.1811 284.072 20.9242 284.331L19.711 285.542C21.0709 287.929 23.0512 289.905 25.4429 291.262L26.6561 290.051C26.9159 289.795 27.2438 289.618 27.601 289.542C27.9583 289.466 28.3299 289.494 28.6718 289.622C29.5386 289.945 30.4391 290.169 31.3563 290.29C31.8203 290.355 32.2441 290.588 32.5471 290.945C32.8501 291.302 33.011 291.758 32.9994 292.225Z" stroke="white" stroke-width="1.5" stroke-linecap="round" stroke-linejoin="round"/>
<g filter="url(#filter3_d_619_1835)">
<mask id="mask0_619_1835" style="mask-type:alpha" maskUnits="userSpaceOnUse" x="6" y="8" width="40" height="40">
<rect x="6" y="8" width="40" height="40" fill="#D9D9D9"/>
</mask>
<g mask="url(#mask0_619_1835)">
<g clip-path="url(#paint2_angular_619_1835_clip_path)" data-figma-skip-parse="true"><g transform="matrix(-0.013696 -0.0171899 0.0171898 -0.0136961 26.2207 33.866)"><foreignObject x="-1238.95" y="-1238.95" width="2477.9" height="2477.9"><div xmlns="http://www.w3.org/1999/xhtml" style="background:conic-gradient(from 90deg,rgba(0, 250, 255, 1) 0deg,rgba(165, 0, 255, 1) 117.692deg,rgba(255, 61, 142, 1) 211.154deg,rgba(4, 0, 255, 1) 315deg,rgba(0, 250, 255, 1) 360deg);height:100%;width:100%;opacity:1"></div></foreignObject></g></g><path d="M42.334 28.0002L29.9639 40.3704V55.845H22.4775V40.3704L10.1074 28.0002L26.2207 11.887L42.334 28.0002ZM16.498 28.0266L26.2207 37.7493L35.9424 28.0266L26.2207 18.3235L16.498 28.0266Z" data-figma-gradient-fill="{&#34;type&#34;:&#34;GRADIENT_ANGULAR&#34;,&#34;stops&#34;:[{&#34;color&#34;:{&#34;r&#34;:0.0,&#34;g&#34;:0.98333334922790527,&#34;b&#34;:1.0,&#34;a&#34;:1.0},&#34;position&#34;:0.0},{&#34;color&#34;:{&#34;r&#34;:0.64999997615814209,&#34;g&#34;:0.0,&#34;b&#34;:1.0,&#34;a&#34;:1.0},&#34;position&#34;:0.32692307233810425},{&#34;color&#34;:{&#34;r&#34;:1.0,&#34;g&#34;:0.24085763096809387,&#34;b&#34;:0.55716693401336670,&#34;a&#34;:1.0},&#34;position&#34;:0.58653843402862549},{&#34;color&#34;:{&#34;r&#34;:0.016666667535901070,&#34;g&#34;:0.0,&#34;b&#34;:1.0,&#34;a&#34;:1.0},&#34;position&#34;:0.8750}],&#34;stopsVar&#34;:[{&#34;color&#34;:{&#34;r&#34;:0.0,&#34;g&#34;:0.98333334922790527,&#34;b&#34;:1.0,&#34;a&#34;:1.0},&#34;position&#34;:0.0},{&#34;color&#34;:{&#34;r&#34;:0.64999997615814209,&#34;g&#34;:0.0,&#34;b&#34;:1.0,&#34;a&#34;:1.0},&#34;position&#34;:0.32692307233810425},{&#34;color&#34;:{&#34;r&#34;:1.0,&#34;g&#34;:0.24085763096809387,&#34;b&#34;:0.55716693401336670,&#34;a&#34;:1.0},&#34;position&#34;:0.58653843402862549},{&#34;color&#34;:{&#34;r&#34;:0.016666667535901070,&#34;g&#34;:0.0,&#34;b&#34;:1.0,&#34;a&#34;:1.0},&#34;position&#34;:0.8750}],&#34;transform&#34;:{&#34;m00&#34;:-27.392030715942383,&#34;m01&#34;:34.379589080810547,&#34;m02&#34;:22.726903915405273,&#34;m10&#34;:-34.379844665527344,&#34;m11&#34;:-27.392230987548828,&#34;m12&#34;:64.752014160156250},&#34;opacity&#34;:1.0,&#34;blendMode&#34;:&#34;NORMAL&#34;,&#34;visible&#34;:true}"/>
<g clip-path="url(#paint3_angular_619_1835_clip_path)" data-figma-skip-parse="true"><g transform="matrix(-0.0156562 -0.00123242 -2.37948e-05 -0.0154194 26.2197 34.39)"><foreignObject x="-1334.49" y="-1334.49" width="2668.98" height="2668.98"><div xmlns="http://www.w3.org/1999/xhtml" style="background:conic-gradient(from 90deg,rgba(0, 250, 255, 1) 0deg,rgba(165, 0, 255, 1) 117.692deg,rgba(255, 61, 142, 1) 211.154deg,rgba(4, 0, 255, 1) 315deg,rgba(0, 250, 255, 1) 360deg);height:100%;width:100%;opacity:1"></div></foreignObject></g></g><path d="M39.4111 28.0385L28.0391 39.4105V53.9261H24.4014V39.4105L13.0283 28.0385L26.2197 14.8539L39.4111 28.0385ZM16.4971 28.0267L26.2197 37.7494L35.9424 28.0267L26.2197 18.3236L16.4971 28.0267Z" data-figma-gradient-fill="{&#34;type&#34;:&#34;GRADIENT_ANGULAR&#34;,&#34;stops&#34;:[{&#34;color&#34;:{&#34;r&#34;:0.0,&#34;g&#34;:0.98333334922790527,&#34;b&#34;:1.0,&#34;a&#34;:1.0},&#34;position&#34;:0.0},{&#34;color&#34;:{&#34;r&#34;:0.64999997615814209,&#34;g&#34;:0.0,&#34;b&#34;:1.0,&#34;a&#34;:1.0},&#34;position&#34;:0.32692307233810425},{&#34;color&#34;:{&#34;r&#34;:1.0,&#34;g&#34;:0.24085763096809387,&#34;b&#34;:0.55716693401336670,&#34;a&#34;:1.0},&#34;position&#34;:0.58653843402862549},{&#34;color&#34;:{&#34;r&#34;:0.016666667535901070,&#34;g&#34;:0.0,&#34;b&#34;:1.0,&#34;a&#34;:1.0},&#34;position&#34;:0.8750}],&#34;stopsVar&#34;:[{&#34;color&#34;:{&#34;r&#34;:0.0,&#34;g&#34;:0.98333334922790527,&#34;b&#34;:1.0,&#34;a&#34;:1.0},&#34;position&#34;:0.0},{&#34;color&#34;:{&#34;r&#34;:0.64999997615814209,&#34;g&#34;:0.0,&#34;b&#34;:1.0,&#34;a&#34;:1.0},&#34;position&#34;:0.32692307233810425},{&#34;color&#34;:{&#34;r&#34;:1.0,&#34;g&#34;:0.24085763096809387,&#34;b&#34;:0.55716693401336670,&#34;a&#34;:1.0},&#34;position&#34;:0.58653843402862549},{&#34;color&#34;:{&#34;r&#34;:0.016666667535901070,&#34;g&#34;:0.0,&#34;b&#34;:1.0,&#34;a&#34;:1.0},&#34;position&#34;:0.8750}],&#34;transform&#34;:{&#34;m00&#34;:-31.312480926513672,&#34;m01&#34;:-0.047589603811502457,&#34;m02&#34;:41.899765014648438,&#34;m10&#34;:-2.4648418426513672,&#34;m11&#34;:-30.838756561279297,&#34;m12&#34;:51.041816711425781},&#34;opacity&#34;:1.0,&#34;blendMode&#34;:&#34;NORMAL&#34;,&#34;visible&#34;:true}"/>
<path d="M42.334 28.0002L29.9639 40.3704V55.845H22.4775V40.3704L10.1074 28.0002L26.2207 11.887L42.334 28.0002ZM16.498 28.0266L26.2207 37.7493L35.9424 28.0266L26.2207 18.3235L16.498 28.0266Z" fill="url(#paint4_linear_619_1835)" fill-opacity="0.5"/>
<path d="M42.334 28.0002L29.9639 40.3704V55.845H22.4775V40.3704L10.1074 28.0002L26.2207 11.887L42.334 28.0002ZM16.498 28.0266L26.2207 37.7493L35.9424 28.0266L26.2207 18.3235L16.498 28.0266Z" fill="white" fill-opacity="0.1"/>
</g>
</g>
<g filter="url(#filter4_d_619_1835)">
<path d="M26.9936 18.0005H30.2022C30.8948 18.0005 31.343 18.1109 31.5467 18.3316C31.7708 18.5524 31.8829 19.014 31.8829 19.7164V38.0493C31.8829 38.7517 31.7708 39.2133 31.5467 39.4341C31.343 39.6548 30.8948 39.7652 30.2022 39.7652H26.9936V18.0005ZM20.546 33.0522H24.3962C24.6814 33.0522 24.8546 33.0923 24.9157 33.1726C24.9768 33.2528 25.0074 33.4234 25.0074 33.6843V36.0324C25.0074 36.3535 25.0481 36.5843 25.1296 36.7248C25.2315 36.8452 25.4658 36.9054 25.8325 36.9054H26.0769V39.7652H24.6407C23.1536 39.7652 22.0229 39.5143 21.2488 39.0126C20.495 38.5109 20.1182 37.6379 20.1182 36.3936V33.6843C20.1182 33.2629 20.2608 33.0522 20.546 33.0522Z" fill="white"/>
</g>
<path d="M1252 31.5455C1253.96 31.5455 1255.55 29.9581 1255.55 28C1255.55 26.0419 1253.96 24.4545 1252 24.4545C1250.04 24.4545 1248.45 26.0419 1248.45 28C1248.45 29.9581 1250.04 31.5455 1252 31.5455Z" stroke="white" stroke-width="1.5" stroke-linecap="round" stroke-linejoin="round"/>
<path d="M1260.75 31.5455C1260.59 31.9019 1260.54 32.2973 1260.61 32.6807C1260.68 33.0641 1260.86 33.4178 1261.14 33.6964L1261.21 33.7673C1261.43 33.9868 1261.6 34.2475 1261.72 34.5344C1261.84 34.8214 1261.9 35.1289 1261.9 35.4395C1261.9 35.7502 1261.84 36.0577 1261.72 36.3447C1261.6 36.6316 1261.43 36.8923 1261.21 37.1118C1260.99 37.3316 1260.73 37.5059 1260.44 37.6249C1260.15 37.7438 1259.84 37.805 1259.53 37.805C1259.22 37.805 1258.92 37.7438 1258.63 37.6249C1258.34 37.5059 1258.08 37.3316 1257.86 37.1118L1257.79 37.0409C1257.51 36.7685 1257.16 36.5857 1256.78 36.5162C1256.39 36.4467 1256 36.4936 1255.64 36.6509C1255.29 36.8007 1254.99 37.0495 1254.78 37.3665C1254.57 37.6836 1254.46 38.0552 1254.46 38.4355V38.6364C1254.46 39.2632 1254.21 39.8644 1253.77 40.3077C1253.32 40.751 1252.72 41 1252.09 41C1251.47 41 1250.87 40.751 1250.42 40.3077C1249.98 39.8644 1249.73 39.2632 1249.73 38.6364V38.53C1249.72 38.1388 1249.6 37.7594 1249.37 37.4412C1249.14 37.1229 1248.82 36.8805 1248.45 36.7455C1248.1 36.5881 1247.7 36.5412 1247.32 36.6107C1246.94 36.6802 1246.58 36.863 1246.3 37.1355L1246.23 37.2064C1246.01 37.4261 1245.75 37.6005 1245.47 37.7194C1245.18 37.8384 1244.87 37.8996 1244.56 37.8996C1244.25 37.8996 1243.94 37.8384 1243.66 37.7194C1243.37 37.6005 1243.11 37.4261 1242.89 37.2064C1242.67 36.9868 1242.49 36.7262 1242.38 36.4392C1242.26 36.1523 1242.19 35.8447 1242.19 35.5341C1242.19 35.2235 1242.26 34.9159 1242.38 34.629C1242.49 34.342 1242.67 34.0813 1242.89 33.8618L1242.96 33.7909C1243.23 33.5124 1243.41 33.1586 1243.48 32.7752C1243.55 32.3919 1243.51 31.9965 1243.35 31.64C1243.2 31.2905 1242.95 30.9923 1242.63 30.7824C1242.32 30.5724 1241.94 30.4597 1241.56 30.4582H1241.36C1240.74 30.4582 1240.14 30.2092 1239.69 29.7659C1239.25 29.3226 1239 28.7214 1239 28.0945C1239 27.4677 1239.25 26.8665 1239.69 26.4232C1240.14 25.9799 1240.74 25.7309 1241.36 25.7309H1241.47C1241.86 25.7218 1242.24 25.5951 1242.56 25.3675C1242.88 25.1399 1243.12 24.8218 1243.25 24.4545C1243.41 24.0981 1243.46 23.7027 1243.39 23.3193C1243.32 22.9359 1243.14 22.5822 1242.86 22.3036L1242.79 22.2327C1242.57 22.0132 1242.4 21.7525 1242.28 21.4656C1242.16 21.1786 1242.1 20.8711 1242.1 20.5605C1242.1 20.2498 1242.16 19.9423 1242.28 19.6553C1242.4 19.3684 1242.57 19.1077 1242.79 18.8882C1243.01 18.6684 1243.27 18.4941 1243.56 18.3751C1243.85 18.2562 1244.16 18.195 1244.47 18.195C1244.78 18.195 1245.08 18.2562 1245.37 18.3751C1245.66 18.4941 1245.92 18.6684 1246.14 18.8882L1246.21 18.9591C1246.49 19.2315 1246.84 19.4143 1247.22 19.4838C1247.61 19.5533 1248 19.5064 1248.36 19.3491H1248.45C1248.8 19.1993 1249.1 18.9505 1249.31 18.6335C1249.52 18.3164 1249.63 17.9448 1249.64 17.5645V17.3636C1249.64 16.7368 1249.89 16.1356 1250.33 15.6923C1250.77 15.249 1251.37 15 1252 15C1252.63 15 1253.23 15.249 1253.67 15.6923C1254.11 16.1356 1254.36 16.7368 1254.36 17.3636V17.47C1254.37 17.8503 1254.48 18.2218 1254.69 18.5389C1254.9 18.856 1255.2 19.1047 1255.55 19.2545C1255.9 19.4119 1256.3 19.4588 1256.68 19.3893C1257.06 19.3198 1257.42 19.137 1257.7 18.8645L1257.77 18.7936C1257.99 18.5739 1258.25 18.3995 1258.53 18.2806C1258.82 18.1616 1259.13 18.1004 1259.44 18.1004C1259.75 18.1004 1260.06 18.1616 1260.34 18.2806C1260.63 18.3995 1260.89 18.5739 1261.11 18.7936C1261.33 19.0132 1261.51 19.2738 1261.62 19.5608C1261.74 19.8477 1261.81 20.1553 1261.81 20.4659C1261.81 20.7765 1261.74 21.0841 1261.62 21.371C1261.51 21.658 1261.33 21.9187 1261.11 22.1382L1261.04 22.2091C1260.77 22.4876 1260.59 22.8414 1260.52 23.2248C1260.45 23.6081 1260.49 24.0035 1260.65 24.36V24.4545C1260.8 24.8041 1261.05 25.1022 1261.37 25.3122C1261.68 25.5222 1262.06 25.6348 1262.44 25.6364H1262.64C1263.26 25.6364 1263.86 25.8854 1264.31 26.3287C1264.75 26.7719 1265 27.3731 1265 28C1265 28.6269 1264.75 29.2281 1264.31 29.6713C1263.86 30.1146 1263.26 30.3636 1262.64 30.3636H1262.53C1262.15 30.3652 1261.78 30.4778 1261.46 30.6878C1261.14 30.8978 1260.9 31.1959 1260.75 31.5455Z" stroke="white" stroke-width="1.5" stroke-linecap="round" stroke-linejoin="round"/>
<g filter="url(#filter5_d_619_1835)">
<rect x="189" y="10" width="1031" height="38" rx="19" fill="white" fill-opacity="0.1" shape-rendering="crispEdges"/>
</g>
<path d="M219 39L214.65 34.65M217 29C217 33.4183 213.418 37 209 37C204.582 37 201 33.4183 201 29C201 24.5817 204.582 21 209 21C213.418 21 217 24.5817 217 29Z" stroke="white" stroke-opacity="0.6" stroke-width="1.5" stroke-linecap="round" stroke-linejoin="round"/>
<path d="M230.2 36.3V35.48H236.36C237.267 35.48 237.72 35.0267 237.72 34.12V32.5C237.72 31.74 237.38 31.2933 236.7 31.16L232.4 30.28C230.933 29.9867 230.2 29.0067 230.2 27.34V26.26C230.2 24.22 231.22 23.2 233.26 23.2H238.1L239 23.9V24.72H233.24C232.333 24.72 231.88 25.1733 231.88 26.08V27.44C231.88 28.2 232.22 28.6467 232.9 28.78L237.2 29.64C238.667 29.9333 239.4 30.92 239.4 32.6V33.94C239.4 35.98 238.38 37 236.34 37H231.1L230.2 36.3ZM242.042 34V29.6C242.042 27.6 243.042 26.6 245.042 26.6H247.642C249.642 26.6 250.642 27.6 250.642 29.6V32.42H243.642V34.2C243.642 35.1333 244.108 35.6 245.042 35.6H250.242V36.4L249.442 37H245.042C243.042 37 242.042 36 242.042 34ZM243.642 31.12H249.042V29.4C249.042 28.4667 248.575 28 247.642 28H245.042C244.108 28 243.642 28.4667 243.642 29.4V31.12ZM256.146 37C254.133 37 253.126 35.9933 253.126 33.98C253.126 31.9667 254.133 30.96 256.146 30.96H259.806V29.4C259.806 28.4667 259.339 28 258.406 28H254.126V27.2L254.926 26.6H258.406C260.406 26.6 261.406 27.6 261.406 29.6V37H256.146ZM254.726 34.2C254.726 35.1333 255.193 35.6 256.126 35.6H259.806V32.26H256.126C255.193 32.26 254.726 32.7267 254.726 33.66V34.2ZM264.446 37V27.8C264.912 27 265.779 26.6 267.046 26.6H269.046L269.846 27.2V28H267.266C266.706 28 266.299 28.1533 266.046 28.46V37H264.446ZM271.807 34V29.6C271.807 27.6 272.807 26.6 274.807 26.6H278.727L279.527 27.2V28H274.807C273.874 28 273.407 28.4667 273.407 29.4V34.2C273.407 35.1333 273.874 35.6 274.807 35.6H279.527V36.4L278.727 37H274.807C272.807 37 271.807 36 271.807 34ZM282.045 37V22.2H283.645V26.6H287.645C289.645 26.6 290.645 27.6 290.645 29.6V37H289.045V29.4C289.045 28.4667 288.579 28 287.645 28H283.645V37H282.045ZM298.569 37V25.2C298.569 23.2 299.569 22.2 301.569 22.2H303.369L304.169 22.8V23.6H301.569C300.635 23.6 300.169 24.0667 300.169 25V26.6H303.969V28H300.169V37H298.569ZM306.006 34V29.6C306.006 27.6 307.006 26.6 309.006 26.6H311.806C313.806 26.6 314.806 27.6 314.806 29.6V34C314.806 36 313.806 37 311.806 37H309.006C307.006 37 306.006 36 306.006 34ZM307.606 34.2C307.606 35.1333 308.073 35.6 309.006 35.6H311.806C312.74 35.6 313.206 35.1333 313.206 34.2V29.4C313.206 28.4667 312.74 28 311.806 28H309.006C308.073 28 307.606 28.4667 307.606 29.4V34.2ZM317.766 37V27.8C318.233 27 319.099 26.6 320.366 26.6H322.366L323.166 27.2V28H320.586C320.026 28 319.619 28.1533 319.366 28.46V37H317.766ZM332.552 37C330.539 37 329.532 35.9933 329.532 33.98C329.532 31.9667 330.539 30.96 332.552 30.96H336.212V29.4C336.212 28.4667 335.746 28 334.812 28H330.532V27.2L331.332 26.6H334.812C336.812 26.6 337.812 27.6 337.812 29.6V37H332.552ZM331.132 34.2C331.132 35.1333 331.599 35.6 332.532 35.6H336.212V32.26H332.532C331.599 32.26 331.132 32.7267 331.132 33.66V34.2ZM340.932 41V26.6H346.532C348.532 26.6 349.532 27.6 349.532 29.6V34C349.532 36 348.532 37 346.532 37H342.532V41H340.932ZM342.532 35.6H346.532C347.465 35.6 347.932 35.1333 347.932 34.2V29.4C347.932 28.4667 347.465 28 346.532 28H342.532V35.6ZM352.573 41V26.6H358.173C360.173 26.6 361.173 27.6 361.173 29.6V34C361.173 36 360.173 37 358.173 37H354.173V41H352.573ZM354.173 35.6H358.173C359.106 35.6 359.573 35.1333 359.573 34.2V29.4C359.573 28.4667 359.106 28 358.173 28H354.173V35.6ZM363.813 36.4V35.6H368.433C369.353 35.6 369.813 35.1333 369.813 34.2C369.813 33.2533 369.447 32.72 368.713 32.6L366.333 32.2C364.653 31.92 363.813 31.0067 363.813 29.46C363.813 27.5533 364.813 26.6 366.813 26.6H370.153L370.953 27.2V28H366.793C365.86 28 365.393 28.4667 365.393 29.4C365.393 30.24 365.787 30.7267 366.573 30.86L368.953 31.26C370.607 31.5267 371.433 32.48 371.433 34.12C371.433 36.04 370.42 37 368.393 37H364.613L363.813 36.4Z" fill="white" fill-opacity="0.6"/>
</g>
<defs>
<filter id="filter0_f_619_1835" x="-4.5" y="12.5" width="1416" height="851" filterUnits="userSpaceOnUse" color-interpolation-filters="sRGB">
<feFlood flood-opacity="0" result="BackgroundImageFix"/>
<feBlend mode="normal" in="SourceGraphic" in2="BackgroundImageFix" result="shape"/>
<feGaussianBlur stdDeviation="16.25" result="effect1_foregroundBlur_619_1835"/>
</filter>
<clipPath id="paint0_angular_619_1835_clip_path"><rect x="28" y="45" width="1351" height="786"/></clipPath><filter id="filter1_d_619_1835" x="-62.9" y="-62.9" width="1405.8" height="900.8" filterUnits="userSpaceOnUse" color-interpolation-filters="sRGB">
<feFlood flood-opacity="0" result="BackgroundImageFix"/>
<feColorMatrix in="SourceAlpha" type="matrix" values="0 0 0 0 0 0 0 0 0 0 0 0 0 0 0 0 0 0 127 0" result="hardAlpha"/>
<feOffset/>
<feGaussianBlur stdDeviation="15.7"/>
<feComposite in2="hardAlpha" operator="out"/>
<feColorMatrix type="matrix" values="0 0 0 0 0 0 0 0 0 0 0 0 0 0 0 0 0 0 0.5 0"/>
<feBlend mode="normal" in2="BackgroundImageFix" result="effect1_dropShadow_619_1835"/>
<feBlend mode="normal" in="SourceGraphic" in2="effect1_dropShadow_619_1835" result="shape"/>
</filter>
<filter id="filter2_dd_619_1835" x="-0.25" y="169.75" width="47.5" height="47.5" filterUnits="userSpaceOnUse" color-interpolation-filters="sRGB">
<feFlood flood-opacity="0" result="BackgroundImageFix"/>
<feColorMatrix in="SourceAlpha" type="matrix" values="0 0 0 0 0 0 0 0 0 0 0 0 0 0 0 0 0 0 127 0" result="hardAlpha"/>
<feOffset/>
<feGaussianBlur stdDeviation="6.75"/>
<feColorMatrix type="matrix" values="0 0 0 0 1 0 0 0 0 1 0 0 0 0 1 0 0 0 1 0"/>
<feBlend mode="normal" in2="BackgroundImageFix" result="effect1_dropShadow_619_1835"/>
<feColorMatrix in="SourceAlpha" type="matrix" values="0 0 0 0 0 0 0 0 0 0 0 0 0 0 0 0 0 0 127 0" result="hardAlpha"/>
<feOffset/>
<feGaussianBlur stdDeviation="6.75"/>
<feColorMatrix type="matrix" values="0 0 0 0 1 0 0 0 0 1 0 0 0 0 1 0 0 0 1 0"/>
<feBlend mode="normal" in2="effect1_dropShadow_619_1835" result="effect2_dropShadow_619_1835"/>
<feBlend mode="normal" in="SourceGraphic" in2="effect2_dropShadow_619_1835" result="shape"/>
</filter>
<filter id="filter3_d_619_1835" x="-3.29258" y="-1.51304" width="59.0266" height="62.913" filterUnits="userSpaceOnUse" color-interpolation-filters="sRGB">
<feFlood flood-opacity="0" result="BackgroundImageFix"/>
<feColorMatrix in="SourceAlpha" type="matrix" values="0 0 0 0 0 0 0 0 0 0 0 0 0 0 0 0 0 0 127 0" result="hardAlpha"/>
<feOffset/>
<feGaussianBlur stdDeviation="6.7"/>
<feComposite in2="hardAlpha" operator="out"/>
<feColorMatrix type="matrix" values="0 0 0 0 0.533333 0 0 0 0 0.254902 0 0 0 0 0.839216 0 0 0 1 0"/>
<feBlend mode="normal" in2="BackgroundImageFix" result="effect1_dropShadow_619_1835"/>
<feBlend mode="normal" in="SourceGraphic" in2="effect1_dropShadow_619_1835" result="shape"/>
</filter>
<clipPath id="paint2_angular_619_1835_clip_path"><path d="M42.334 28.0002L29.9639 40.3704V55.845H22.4775V40.3704L10.1074 28.0002L26.2207 11.887L42.334 28.0002ZM16.498 28.0266L26.2207 37.7493L35.9424 28.0266L26.2207 18.3235L16.498 28.0266Z"/></clipPath><clipPath id="paint3_angular_619_1835_clip_path"><path d="M39.4111 28.0385L28.0391 39.4105V53.9261H24.4014V39.4105L13.0283 28.0385L26.2197 14.8539L39.4111 28.0385ZM16.4971 28.0267L26.2197 37.7494L35.9424 28.0267L26.2197 18.3236L16.4971 28.0267Z"/></clipPath><filter id="filter4_d_619_1835" x="-25.8818" y="-27.9995" width="103.765" height="113.765" filterUnits="userSpaceOnUse" color-interpolation-filters="sRGB">
<feFlood flood-opacity="0" result="BackgroundImageFix"/>
<feColorMatrix in="SourceAlpha" type="matrix" values="0 0 0 0 0 0 0 0 0 0 0 0 0 0 0 0 0 0 127 0" result="hardAlpha"/>
<feOffset/>
<feGaussianBlur stdDeviation="23"/>
<feComposite in2="hardAlpha" operator="out"/>
<feColorMatrix type="matrix" values="0 0 0 0 1 0 0 0 0 1 0 0 0 0 1 0 0 0 1 0"/>
<feBlend mode="normal" in2="BackgroundImageFix" result="effect1_dropShadow_619_1835"/>
<feBlend mode="normal" in="SourceGraphic" in2="effect1_dropShadow_619_1835" result="shape"/>
</filter>
<filter id="filter5_d_619_1835" x="139" y="-40" width="1131" height="138" filterUnits="userSpaceOnUse" color-interpolation-filters="sRGB">
<feFlood flood-opacity="0" result="BackgroundImageFix"/>
<feColorMatrix in="SourceAlpha" type="matrix" values="0 0 0 0 0 0 0 0 0 0 0 0 0 0 0 0 0 0 127 0" result="hardAlpha"/>
<feOffset/>
<feGaussianBlur stdDeviation="25"/>
<feComposite in2="hardAlpha" operator="out"/>
<feColorMatrix type="matrix" values="0 0 0 0 0 0 0 0 0 0 0 0 0 0 0 0 0 0 0.5 0"/>
<feBlend mode="normal" in2="BackgroundImageFix" result="effect1_dropShadow_619_1835"/>
<feBlend mode="normal" in="SourceGraphic" in2="effect1_dropShadow_619_1835" result="shape"/>
</filter>
<linearGradient id="paint1_linear_619_1835" x1="703.5" y1="45" x2="703.5" y2="831" gradientUnits="userSpaceOnUse">
<stop stop-opacity="0.3"/>
<stop offset="1" stop-opacity="0.6"/>
</linearGradient>
<linearGradient id="paint4_linear_619_1835" x1="42.3339" y1="33.866" x2="10.1074" y2="33.866" gradientUnits="userSpaceOnUse">
<stop offset="0.298077" stop-color="#FF0099"/>
<stop offset="0.5" stop-color="white" stop-opacity="0"/>
<stop offset="0.6875" stop-color="#009DFF"/>
</linearGradient>
<clipPath id="clip0_619_1835">
<rect width="1280" height="775" fill="white"/>
</clipPath>
</defs>
</svg>
